HIERARCHY
ROOT Hips
{
	OFFSET 0.00000 0.00000 0.00000
	CHANNELS 6 Xposition Yposition Zposition Zrotation Yrotation Xrotation 
	JOINT LHipJoint
	{
		OFFSET 0 0 0
		CHANNELS 3 Zrotation Yrotation Xrotation
		JOINT LeftHip
		{
			OFFSET 1.57358 -1.76629 0.73362
			CHANNELS 3 Zrotation Yrotation Xrotation
			JOINT LeftKnee
			{
				OFFSET 2.40600 -6.61045 0.00000
				CHANNELS 3 Zrotation Yrotation Xrotation
				JOINT LeftAnkle
				{
					OFFSET 2.66168 -7.31291 0.00000
					CHANNELS 3 Zrotation Yrotation Xrotation
					JOINT LeftToe
					{
						OFFSET 0.20870 -0.57341 2.12506
						CHANNELS 3 Zrotation Yrotation Xrotation
						End Site
						{
							OFFSET 0.00000 -0.00000 1.10557
						}
					}
				}
			}
		}
	}
	JOINT RHipJoint
	{
		OFFSET 0 0 0
		CHANNELS 3 Zrotation Yrotation Xrotation
		JOINT RightHip
		{
			OFFSET -1.49299 -1.76629 0.73362
			CHANNELS 3 Zrotation Yrotation Xrotation
			JOINT RightKnee
			{
				OFFSET -2.43663 -6.69460 0.00000
				CHANNELS 3 Zrotation Yrotation Xrotation
				JOINT RightAnkle
				{
					OFFSET -2.62959 -7.22474 0.00000
					CHANNELS 3 Zrotation Yrotation Xrotation
					JOINT RightToe
					{
						OFFSET -0.25784 -0.70841 2.21862
						CHANNELS 3 Zrotation Yrotation Xrotation
						End Site
						{
							OFFSET -0.00000 -0.00000 1.16452
						}
					}
				}
			}
		}
	}
	JOINT lowerback
	{
		OFFSET 0 0 0
		CHANNELS 3 Zrotation Yrotation Xrotation
		JOINT Chest
		{
			OFFSET -0.00034 2.12399 -0.25450
			CHANNELS 3 Zrotation Yrotation Xrotation
			JOINT Chest2
			{
				OFFSET 0.05594 2.14379 -0.03318
				CHANNELS 3 Zrotation Yrotation Xrotation
				JOINT lowerneck
				{
					OFFSET 0 0 0
					CHANNELS 3 Zrotation Yrotation Xrotation
					JOINT Neck
					{
						OFFSET -0.09835 1.62725 0.24211
						CHANNELS 3 Zrotation Yrotation Xrotation
						JOINT Head
						{
							OFFSET 0.10849 1.66041 -0.22648
							CHANNELS 3 Zrotation Yrotation Xrotation
							End Site
							{
								OFFSET 0.04385 1.68267 -0.10541
							}
						}
					}
				}
				JOINT LeftCollar
				{
					OFFSET 0 0 0
					CHANNELS 3 Zrotation Yrotation Xrotation
					JOINT LeftShoulder
					{
						OFFSET 3.29108 0.79398 -0.68179
CHANNELS 3 Zrotation Xrotation Yrotation
						JOINT LeftElbow
						{
OFFSET 0 -5.153100 -0.000000
CHANNELS 3 Zrotation Xrotation Yrotation
							JOINT LeftWrist
							{
OFFSET 0 -3.751380 -0.000000
CHANNELS 3 Zrotation Xrotation Yrotation
								JOINT lhand
								{
									OFFSET 0 0 0
CHANNELS 3 Zrotation Xrotation Yrotation
									JOINT LFingers
									{
OFFSET 0 -0.529170 0.000000
CHANNELS 3 Zrotation Xrotation Yrotation
										End Site
										{
OFFSET 0 -0.426630 0.000000
										}
									}
								}
								JOINT LThumb
								{
OFFSET 0 0.000000 0.000000
CHANNELS 3 Zrotation Xrotation Yrotation
									End Site
									{
OFFSET 0 -0.433150 0.433150
									}
								}
							}
						}
					}
				}
				JOINT RightCollar
				{
					OFFSET 0 0 0
					CHANNELS 3 Zrotation Yrotation Xrotation
					JOINT RightShoulder
					{
						OFFSET -3.07414 1.06285 -0.44338
CHANNELS 3 Zrotation Xrotation Yrotation
						JOINT RightElbow
						{
OFFSET 0 -5.296130 0.000000
CHANNELS 3 Zrotation Xrotation Yrotation
							JOINT RightWrist
							{
OFFSET 0 -3.761440 -0.000000
CHANNELS 3 Zrotation Xrotation Yrotation
								JOINT rhand
								{
									OFFSET 0 0 0
CHANNELS 3 Zrotation Xrotation Yrotation
									JOINT RFingers
									{
OFFSET 0 -0.747320 0.000000
CHANNELS 3 Zrotation Xrotation Yrotation
										End Site
										{
OFFSET 0 -0.602510 0.000000
										}
									}
								}
								JOINT RThumb
								{
OFFSET 0 0.000000 0.000000
CHANNELS 3 Zrotation Xrotation Yrotation
									End Site
									{
OFFSET 0 -0.611710 0.611710
									}
								}
							}
						}
					}
				}
			}
		}
	}
}
MOTION
Frames: 7
Frame Time: 0.008333333333333333
0.716112 26.160219 -17.240274 1.865938 -7.927608 5.542672 0.000000 0.000000 0.000000 -17.971279 -4.918797 -25.597625 5.204285 13.610164 41.698011 2.834499 -0.613495 32.122498 0.295749 3.485898 9.635834 0.000000 0.000000 0.000000 20.746759 -1.362387 -26.466975 -4.321591 -12.576346 37.802868 -1.211360 -20.642634 22.878065 -1.355169 -7.367389 20.809131 -0.947464 1.959016 15.255896 0.036235 2.423677 1.586853 0.068252 1.201670 -6.904750 -12.165918 -4.272179 -11.814970 10.234010 -5.104161 11.980092 4.818661 -2.289036 6.146641 0.000000 0.000000 0.000000 -1.632381 0.665059 -8.215382 17.750166 -27.829431 4.435366 26.295914 -0.451130 -15.236633 0.000000 0.000000 0.000000 -7.125000 0.000000 0.000000 -1.258966 46.875822 0.058208 0.000000 0.000000 0.000000 -1.800600 -0.449449 -29.576772 -8.390087 -14.183069 -1.045712 -25.315627 21.136303 -4.486345 0.000000 0.000000 0.000000 7.125000 0.000000 0.000000 1.004139 25.019108 0.485382
0.707791 26.238521 -17.250661 1.810023 -7.952925 5.557441 0.000000 0.000000 0.000000 -17.771331 -5.075766 -25.904873 5.245827 13.655338 41.874111 2.654676 -0.632581 31.088507 0.233422 3.098682 8.554541 0.000000 0.000000 0.000000 20.959171 -1.510685 -26.787319 -4.357471 -12.621352 37.967379 -1.127201 -20.592243 22.342410 -1.374868 -7.420178 20.966291 -0.877715 1.931887 15.446225 0.000862 2.394552 1.584958 -0.009055 1.184450 -7.007242 -12.010200 -4.279795 -11.902516 10.254860 -5.137027 11.995915 4.795692 -2.294076 6.166804 0.000000 0.000000 0.000000 -1.912808 0.524474 -7.383331 16.855984 -26.660594 4.026283 26.384750 2.900725 -15.713177 0.000000 0.000000 0.000000 -7.125000 0.000000 0.000000 -1.250124 47.411007 0.074108 0.000000 0.000000 0.000000 -1.075910 0.024286 -28.470443 -8.616057 -14.546025 -1.102136 -25.049377 19.519877 -4.954050 0.000000 0.000000 0.000000 7.125000 0.000000 0.000000 1.212222 24.515699 0.602721
0.701189 26.313757 -17.257539 1.740363 -7.973212 5.522743 0.000000 0.000000 0.000000 -17.575658 -5.192107 -26.123718 5.275336 13.687306 41.998953 2.511384 -0.590866 30.230935 0.188095 2.790323 7.695773 0.000000 0.000000 0.000000 21.179620 -1.708944 -27.037302 -4.384841 -12.655545 38.092545 -1.063230 -20.419427 21.873149 -1.334742 -7.312466 20.645803 -0.754886 1.900809 15.656320 -0.041622 2.368558 1.607147 -0.124553 1.167009 -7.092516 -11.833916 -4.295702 -11.978464 10.254922 -5.179951 11.955513 4.760885 -2.304613 6.167452 0.000000 0.000000 0.000000 -2.182602 0.451984 -6.571736 16.111156 -25.669160 3.695143 26.261282 5.913689 -16.031133 0.000000 0.000000 0.000000 -7.125000 0.000000 0.000000 -1.418320 47.741590 0.092706 0.000000 0.000000 0.000000 -0.340548 0.513916 -27.293489 -8.872717 -14.956996 -1.167437 -24.556590 17.662356 -5.849152 0.000000 0.000000 0.000000 7.125000 0.000000 0.000000 1.597271 23.557468 0.833019
0.696204 26.385520 -17.263274 1.684168 -7.941257 5.489900 0.000000 0.000000 0.000000 -17.407961 -5.296030 -26.292985 5.286671 13.699528 42.046954 2.435797 -0.509612 29.745530 0.160373 2.578312 7.106922 0.000000 0.000000 0.000000 21.380228 -1.987801 -27.296563 -4.402457 -12.677463 38.172842 -1.017482 -20.151358 21.468929 -1.214158 -6.987792 19.680044 -0.611361 1.851032 15.874407 -0.088530 2.321581 1.621486 -0.252374 1.138673 -7.189543 -11.703022 -4.329023 -12.111269 10.260930 -5.235531 11.950938 4.734119 -2.321478 6.192033 0.000000 0.000000 0.000000 -2.459343 0.522518 -5.782550 15.561498 -24.921284 3.459780 25.542835 7.895325 -15.570786 0.000000 0.000000 0.000000 -7.125000 0.000000 0.000000 -2.029909 47.133007 0.104928 0.000000 0.000000 0.000000 0.377353 1.056882 -26.024565 -9.154783 -15.406555 -1.241111 -23.866207 15.498138 -7.346133 0.000000 0.000000 0.000000 7.125000 0.000000 0.000000 2.139759 21.959296 1.189306
0.691392 26.451614 -17.271472 1.630035 -7.909702 5.564080 0.000000 0.000000 0.000000 -17.232935 -5.398178 -26.579812 5.283919 13.696575 42.035403 2.276150 -0.477489 28.732453 0.141126 2.418524 6.663918 0.000000 0.000000 0.000000 21.552148 -2.188839 -27.625741 -4.409022 -12.685581 38.202692 -0.958106 -20.097965 21.064937 -1.213654 -6.988081 19.680182 -0.487361 1.763463 15.956612 -0.124846 2.223927 1.658787 -0.341657 1.086916 -7.188308 -11.595320 -4.301417 -12.388490 10.240083 -5.189185 12.020117 4.712106 -2.288239 6.252632 0.000000 0.000000 0.000000 -2.715354 0.622084 -5.254251 15.133408 -24.330020 3.281622 25.080407 8.661344 -14.905097 0.000000 0.000000 0.000000 -7.125000 0.000000 0.000000 -2.357877 46.344563 0.075349 0.000000 0.000000 0.000000 0.963894 1.659515 -23.933987 -9.502701 -15.956952 -1.335858 -22.998883 12.670825 -8.840996 0.000000 0.000000 0.000000 7.125000 0.000000 0.000000 2.806048 20.400290 1.666474
0.686127 26.513168 -17.280093 1.586285 -7.954086 5.636299 0.000000 0.000000 0.000000 -17.071517 -5.433241 -26.867190 5.272786 13.684573 41.988382 2.122627 -0.402560 27.727242 0.125477 2.282221 6.286347 0.000000 0.000000 0.000000 21.699186 -2.293934 -27.916036 -4.410880 -12.687876 38.211162 -0.909109 -20.087692 20.744463 -1.275999 -7.155036 20.177210 -0.402419 1.696463 16.021866 -0.165942 2.146457 1.693559 -0.417804 1.046055 -7.181932 -11.457342 -4.233224 -12.547983 10.186150 -5.095870 12.010180 4.679207 -2.236445 6.261031 0.000000 0.000000 0.000000 -2.950187 0.733826 -4.816099 14.736500 -23.776631 3.119555 24.780983 8.928500 -14.260943 0.000000 0.000000 0.000000 -7.125000 0.000000 0.000000 -2.535181 45.604140 0.037726 0.000000 0.000000 0.000000 1.502682 2.368291 -21.351644 -9.945256 -16.651809 -1.461020 -22.011332 9.701718 -9.907076 0.000000 0.000000 0.000000 7.125000 0.000000 0.000000 3.542212 19.322407 2.177195
0.680050 26.568953 -17.288628 1.559246 -8.125402 5.670781 0.000000 0.000000 0.000000 -16.935229 -5.356631 -27.117643 5.252165 13.662314 41.901188 2.006413 -0.240189 26.905077 0.113118 2.168397 5.971301 0.000000 0.000000 0.000000 21.813829 -2.263549 -28.118761 -4.408422 -12.684872 38.200101 -0.881865 -20.080455 20.563657 -1.404844 -7.496234 21.194657 -0.376541 1.676047 16.102505 -0.218450 2.119077 1.716706 -0.484377 1.030965 -7.198593 -11.261240 -4.116738 -12.463998 10.085505 -4.956782 11.844122 4.626562 -2.169735 6.170491 0.000000 0.000000 0.000000 -3.156258 0.856594 -4.444790 14.352627 -23.236191 2.965992 24.671871 8.752337 -13.718933 0.000000 0.000000 0.000000 -7.125000 0.000000 0.000000 -2.551705 45.001975 0.000104 0.000000 0.000000 0.000000 2.003861 3.235453 -18.211016 -10.524958 -17.555911 -1.630287 -20.879583 6.708849 -10.256399 0.000000 0.000000 0.000000 7.125000 0.000000 0.000000 4.355432 19.036926 2.705140
